# xmcd CD database file
#
# Track frame offsets:
#	150
#	33492
#	50775
#	70697
#	91865
#	113920
#	135180
#	162232
#	181055
#	208772
#	224000
#	243275
#	267630
#
# Disc length: 3966 seconds
#
# Revision: 5
# Processed by: cddbd v1.5.1PL2 Copyright (c) Steve Scherf et al.
# Submitted via: CDex 1.51
#
DISCID=bc0f7c0d
DTITLE=Various Artist - New Age and New Sounds Vol. 37 "Gaia"
DYEAR=1994
DGENRE=New Age
TTITLE0=Art Of Noise - Camilla
TTITLE1=S. Rivera and T. Eyre - Dante's Dream
TTITLE2=John Serrie - Where Lovers Walk
TTITLE3=R. Burmer and J. Archer - Across The View
TTITLE4=Crystal Wind - Feathers
TTITLE5=Chip Davis - Passion
TTITLE6=Attilio Casati - Andalusia
TTITLE7=Terry Marshall - New World Nomad
TTITLE8=B. Keane and O. Faruk Tekbilek - Imaginary Traveler
TTITLE9=Antonio Onorato - Vecchiarello
TTITLE10=Coolangubra - A Child Dreams
TTITLE11=Ravi - Sky Blue Again
TTITLE12=Ron Marvin - Fractal Trance
EXTD=YEAR: 1994
EXTT0=
EXTT1=
EXTT2=
EXTT3=
EXTT4=
EXTT5=
EXTT6=
EXTT7=
EXTT8=
EXTT9=
EXTT10=
EXTT11=
EXTT12=
PLAYORDER=
